<?xml version="1.0" encoding="UTF-8" standalone="no"?>
<svg width="28px" height="28px" viewBox="0 0 28 28" version="1.1" xmlns="http://www.w3.org/2000/svg" xmlns:xlink="http://www.w3.org/1999/xlink" xmlns:sketch="http://www.bohemiancoding.com/sketch/ns">
    <!-- Generator: Sketch 3.3.3 (12072) - http://www.bohemiancoding.com/sketch -->
    <title>Shape Copy 5</title>
    <desc>Created with Sketch.</desc>
    <defs></defs>
    <g id="Page-1" stroke="none" stroke-width="1" fill="none" fill-rule="evenodd" sketch:type="MSPage">
        <g id="Home" sketch:type="MSArtboardGroup" transform="translate(-1000.000000, -660.000000)" fill="#343434">
            <g id="Hero" sketch:type="MSLayerGroup">
                <g id="Rectangle-4-+-Rectangle-3-+-Find-me-a-mentor-wit-+-TRY-IT-OUT!" transform="translate(370.000000, 455.000000)" sketch:type="MSShapeGroup">
                    <g id="Group" transform="translate(1.000000, 7.000000)">
                        <path d="M650.698327,211.958674 C652.17593,206.212193 648.702631,200.334638 642.956515,198.857035 C637.209305,197.379066 631.332115,200.852366 629.854146,206.598846 C628.376542,212.345691 631.849477,218.222516 637.596322,219.70085 C643.342438,221.178454 649.220358,217.705519 650.698327,211.958674 L650.698327,211.958674 Z M638.323988,216.870511 C634.137627,215.794164 631.608139,211.512143 632.684486,207.326147 C633.761198,203.14015 638.042488,200.610297 642.228119,201.686644 C646.414481,202.762991 648.944334,207.044646 647.867622,211.230643 C646.79091,215.416639 642.51035,217.946857 638.323988,216.870511 L638.323988,216.870511 Z M656.061075,224.333377 C656.061806,224.333012 656.062171,224.332647 656.062536,224.332647 C656.05779,224.339219 656.051583,224.346156 656.046471,224.352363 C656.04209,224.35857 656.038074,224.363681 656.033692,224.369888 C656.032962,224.370253 656.032597,224.370253 656.031867,224.370984 C655.976735,224.438164 655.906634,224.521044 655.851502,224.577271 L655.628784,224.80437 C654.982903,225.46303 654.136211,225.679906 653.73678,225.288507 L647.347339,219.02649 C647.692369,218.740609 648.148392,218.323652 648.35614,218.132699 L648.35541,218.132334 C648.933381,217.609495 649.135287,217.304262 649.247376,217.198015 C649.470824,216.986981 649.798693,216.531688 649.907862,216.414122 L656.297302,222.675774 C656.648539,223.020804 656.533529,223.721451 656.061075,224.333377 L656.061075,224.333377 Z M637.836565,204.890857 C636.211092,205.991666 635.017179,208.061845 635.512269,210.025412 C635.692999,210.740664 634.631987,211.069629 634.451622,210.355837 C633.811218,207.816856 635.270201,205.274224 637.290725,203.905423 C637.894618,203.496499 638.438268,204.483393 637.836565,204.890857 L637.836565,204.890857 Z" id="Shape-Copy-5"></path>
                    </g>
                </g>
            </g>
        </g>
    </g>
</svg>